<mxfile host="app.diagrams.net" modified="2023-06-27T19:09:22.083Z" agent="Mozilla/5.0 (Windows NT 10.0; Win64; x64) AppleWebKit/537.36 (KHTML, like Gecko) Chrome/114.0.0.0 Safari/537.36" etag="PRv8XMlzsI-tDv0j3TPF" version="21.5.1" type="github">
  <diagram name="Page-1" id="Ii7l1QOKZbqQa2WmFgOp">
    <mxGraphModel dx="1434" dy="796" grid="0" gridSize="10" guides="1" tooltips="1" connect="1" arrows="1" fold="1" page="1" pageScale="1" pageWidth="850" pageHeight="1100" background="#ffffff" math="0" shadow="0">
      <root>
        <mxCell id="0" />
        <mxCell id="1" parent="0" />
        <mxCell id="5bNDe-UUc4NEutLfhQT3-7" value="" style="whiteSpace=wrap;html=1;aspect=fixed;fontSize=10;labelBorderColor=none;fillColor=#f5f5f5;fontColor=#333333;strokeColor=#666666;strokeWidth=3;" parent="1" vertex="1">
          <mxGeometry x="201" y="234" width="448" height="448" as="geometry" />
        </mxCell>
        <mxCell id="5bNDe-UUc4NEutLfhQT3-2" value="Actor" style="shape=umlActor;verticalLabelPosition=bottom;verticalAlign=top;html=1;outlineConnect=0;strokeColor=#000000;fontStyle=1;fontFamily=Verdana;fontColor=#000000;strokeWidth=2;" parent="1" vertex="1">
          <mxGeometry x="410" y="83" width="30" height="60" as="geometry" />
        </mxCell>
        <mxCell id="5bNDe-UUc4NEutLfhQT3-3" value="Butoane interactive" style="rounded=0;whiteSpace=wrap;html=1;fontStyle=1;fontFamily=Verdana;labelBackgroundColor=none;strokeWidth=2;fillColor=#3399FF;" parent="1" vertex="1">
          <mxGeometry x="362" y="303" width="119" height="52" as="geometry" />
        </mxCell>
        <mxCell id="5bNDe-UUc4NEutLfhQT3-5" value="" style="endArrow=classic;html=1;rounded=0;fontColor=#000000;strokeColor=#000000;strokeWidth=2;" parent="1" edge="1">
          <mxGeometry width="50" height="50" relative="1" as="geometry">
            <mxPoint x="425" y="166" as="sourcePoint" />
            <mxPoint x="425" y="231" as="targetPoint" />
          </mxGeometry>
        </mxCell>
        <mxCell id="5bNDe-UUc4NEutLfhQT3-9" value="Subsistem Unity&amp;nbsp;&lt;br&gt;(ARFoundation,ARCore,&lt;br&gt;Vuforia)" style="rounded=0;whiteSpace=wrap;html=1;fontFamily=Verdana;fontStyle=1;strokeWidth=2;strokeColor=#FFFFFF;fillColor=#3399FF;" parent="1" vertex="1">
          <mxGeometry x="327" y="425" width="189" height="57" as="geometry" />
        </mxCell>
        <mxCell id="5bNDe-UUc4NEutLfhQT3-10" value="Camera&amp;nbsp;&lt;br&gt;telefonului" style="rounded=0;whiteSpace=wrap;html=1;fontStyle=1;fontFamily=Verdana;strokeWidth=2;fillColor=#3399FF;" parent="1" vertex="1">
          <mxGeometry x="362" y="564" width="119" height="52" as="geometry" />
        </mxCell>
        <mxCell id="5bNDe-UUc4NEutLfhQT3-12" value="" style="endArrow=classic;html=1;rounded=0;strokeWidth=2;strokeColor=#000000;" parent="1" edge="1">
          <mxGeometry width="50" height="50" relative="1" as="geometry">
            <mxPoint x="421" y="358" as="sourcePoint" />
            <mxPoint x="421" y="423" as="targetPoint" />
          </mxGeometry>
        </mxCell>
        <mxCell id="5bNDe-UUc4NEutLfhQT3-13" value="" style="endArrow=classic;html=1;rounded=0;strokeWidth=2;strokeColor=#000000;" parent="1" edge="1">
          <mxGeometry width="50" height="50" relative="1" as="geometry">
            <mxPoint x="421" y="495" as="sourcePoint" />
            <mxPoint x="421" y="560" as="targetPoint" />
          </mxGeometry>
        </mxCell>
        <mxCell id="5bNDe-UUc4NEutLfhQT3-14" value="&lt;font style=&quot;font-size: 16px;&quot;&gt;Interfața utilizator Android (Subsistem Android nativ)&lt;/font&gt;" style="text;strokeColor=none;fillColor=none;html=1;fontSize=18;fontStyle=1;verticalAlign=middle;align=center;fontColor=#000000;" parent="1" vertex="1">
          <mxGeometry x="391" y="254" width="76" height="23" as="geometry" />
        </mxCell>
        <mxCell id="5bNDe-UUc4NEutLfhQT3-16" value="Interacțiune utilizator" style="text;strokeColor=none;fillColor=none;html=1;fontSize=13;fontStyle=1;verticalAlign=middle;align=center;fontFamily=Verdana;fontColor=#000000;" parent="1" vertex="1">
          <mxGeometry x="479" y="181" width="66" height="21" as="geometry" />
        </mxCell>
        <mxCell id="5bNDe-UUc4NEutLfhQT3-17" value="Butoane pentru accesarea &lt;br style=&quot;font-size: 12px;&quot;&gt;proiectului Unity&amp;nbsp;&lt;br style=&quot;font-size: 12px;&quot;&gt;și accesul la modelele 3D" style="text;strokeColor=none;fillColor=none;html=1;fontSize=12;fontStyle=1;verticalAlign=middle;align=center;fontFamily=Verdana;fontColor=#000000;" parent="1" vertex="1">
          <mxGeometry x="405" y="373" width="268" height="28" as="geometry" />
        </mxCell>
        <mxCell id="5bNDe-UUc4NEutLfhQT3-18" value="Realizare AR prin &lt;br&gt;ARFoundation&lt;br&gt;Vuforia și Arcore" style="text;strokeColor=none;fillColor=none;html=1;fontSize=12;fontStyle=1;verticalAlign=middle;align=center;fontFamily=Verdana;fontColor=#000000;" parent="1" vertex="1">
          <mxGeometry x="504" y="517" width="59" height="26" as="geometry" />
        </mxCell>
      </root>
    </mxGraphModel>
  </diagram>
</mxfile>
